# xmcd
#
# Track frame offsets:
#	187
#	15417
#	25040
#	43812
#	48917
#	60215
#	72527
#	81457
#	98247
#	104460
#	111942
#	124547
#	132690
#	143885
#	154690
#
# Disc length: 2253 seconds
#
# Revision: 1
# Processed by: cddbd v1.5.1PL0 Copyright (c) Steve Scherf et al.
# Submitted via: CDex 1.50Beta5
#
DISCID=cc08cb0f
DTITLE=TAKU - 巨神ゴーグ 音楽篇Vol.1
DYEAR=1994
DGENRE=
TTITLE0=TAKU/輝く瞳
TTITLE1=ビクター・オーケストラ/オウストラル島の謎
TTITLE2=ビクター・オーケストラ/紐育
TTITLE3=ビクター・オーケストラ/GAILのテーマ
TTITLE4=ビクター・オーケストラ/ミステリーゾーン
TTITLE5=ビクター・オーケストラ/大平原
TTITLE6=ビクター・オーケストラ/BELIEVE IN ME, BELIEVE IN YOU
TTITLE7=STEAVE/BELIEVE IN ME, BELIEVE IN YOU
TTITLE8=ビクター・オーケストラ/冒険への旅立ち
TTITLE9=ビクター・オーケストラ/青息吐息
TTITLE10=ビクター・オーケストラ/エスケイプ
TTITLE11=ビクター・オーケストラ/絶体絶命
TTITLE12=ビクター・オーケストラ/対峙
TTITLE13=ビクター・オーケストラ/前進
TTITLE14=ビクター・オーケストラ/陰謀策略
EXTD=
EXTT0=
EXTT1=
EXTT2=
EXTT3=
EXTT4=
EXTT5=
EXTT6=
EXTT7=
EXTT8=
EXTT9=
EXTT10=
EXTT11=
EXTT12=
EXTT13=
EXTT14=
PLAYORDER=
